<?xml version="1.0" encoding="UTF-8" standalone="no"?>
<svg
   id="Layer_5"
   data-name="Layer 5"
   viewBox="0 0 54.72 54.72"
   version="1.1"
   sodipodi:docname="Oreplay-logo.svg"
   inkscape:version="1.2.1 (9c6d41e410, 2022-07-14)"
   xmlns:inkscape="http://www.inkscape.org/namespaces/inkscape"
   xmlns:sodipodi="http://sodipodi.sourceforge.net/DTD/sodipodi-0.dtd"
   xmlns="http://www.w3.org/2000/svg"
   xmlns:svg="http://www.w3.org/2000/svg"
   xmlns:rdf="http://www.w3.org/1999/02/22-rdf-syntax-ns#"
   xmlns:cc="http://creativecommons.org/ns#"
   xmlns:dc="http://purl.org/dc/elements/1.1/">
  <sodipodi:namedview
     id="namedview11"
     pagecolor="#ffffff"
     bordercolor="#666666"
     borderopacity="1.0"
     inkscape:pageshadow="2"
     inkscape:pageopacity="0.0"
     inkscape:pagecheckerboard="0"
     showgrid="false"
     inkscape:zoom="9.3602466"
     inkscape:cx="24.19808"
     inkscape:cy="28.150968"
     inkscape:window-width="1920"
     inkscape:window-height="991"
     inkscape:window-x="-9"
     inkscape:window-y="-9"
     inkscape:window-maximized="1"
     inkscape:current-layer="Layer_5"
     inkscape:showpageshadow="0"
     inkscape:deskcolor="#d1d1d1" />
  <defs
     id="defs4">
    <style
       id="style2">.cls-1{fill:#28aae2;}</style>
  </defs>
  <title
     id="title6">final_courseticket_v5</title>
  <metadata
     id="metadata828">
    <rdf:RDF>
      <cc:Work
         rdf:about="">
        <dc:title>final_courseticket_v5</dc:title>
      </cc:Work>
    </rdf:RDF>
  </metadata>
  <path
     id="pVl2sCyR4"
     d="M 26.089208,54.657863 C 14.696468,54.164525 4.0157607,45.813304 1.1314211,34.725608 -0.03260424,31.251488 0.09100191,27.498435 0.35211855,23.895134 1.4266397,15.80378 6.287657,8.3496674 13.293566,4.147205 21.914586,-1.1195009 33.449841,-1.0917413 41.997032,4.3016416 43.091137,4.8738 45.896043,7.1544852 43.234951,5.5241621 33.675268,0.20495677 20.54933,2.3528586 13.379038,10.70826 8.267046,16.414503 6.5015082,24.698618 8.4719466,32.055354 10.348057,40.970626 19.30502,47.5435 28.348753,46.99357 c 9.313455,-0.104635 18.079975,-7.789748 18.773648,-17.190971 0.503766,-4.93645 -1.354765,-10.026365 -5.098885,-13.31972 -3.123995,-2.894186 -7.781472,-4.532014 -11.972435,-3.288691 -2.491137,1.092241 -4.452841,3.284336 -5.389756,5.823746 1.763058,0.676847 5.42495,1.668909 5.42495,1.668909 0,0 -7.10506,6.877698 -10.699068,10.272511 -0.918325,-2.708638 -1.467694,-5.578684 -2.212212,-8.359492 -0.39534,-1.991455 -1.331728,-6.031115 -1.331728,-6.031115 0,0 3.575856,1.045313 5.379072,1.492678 1.151048,-3.755069 3.230424,-7.690302 7.149471,-9.1266921 6.0712,-2.4408874 13.18244,-1.0527689 18.58762,2.3962541 3.259705,2.317827 5.841096,5.622557 6.825109,9.620738 1.965083,7.451076 0.785123,15.616798 -3.647567,21.84443 -4.851378,7.12762 -13.191812,11.671145 -21.810412,11.861708 -0.742962,0.06424 -1.494657,0.07174 -2.237352,0 z"
     style="fill:#010101;stroke-width:0.00500472"
     sodipodi:nodetypes="cccccccccccccccccccccccc" />
  <path
     id="pqkUVOaOf"
     d="m 25.686987,44.245865 c -1.205264,-0.130825 -2.401997,-0.467262 -3.58479,-0.856876 -2.090316,-0.641753 -6.222513,-3.54614 -6.222513,-3.54614 7.560004,-7.387065 22.968038,-22.744723 22.968038,-22.744723 0,0 1.65545,1.675668 2.380063,2.502681 0.888512,1.087491 1.80576,2.198565 2.282602,3.53211 0.343216,0.840489 0.595048,1.667943 0.74411,2.600508 0.278118,1.447061 0.30972,2.973586 0.06033,4.423856 -0.115142,1.224131 -0.472973,2.43393 -0.879855,3.606837 -0.509646,1.486607 -1.452621,2.81445 -2.358017,4.065163 -0.817627,1.011036 -1.765527,1.897904 -2.797948,2.698278 -1.772967,1.422039 -3.851819,2.521765 -6.025767,3.175287 -1.218534,0.311627 -2.531056,0.393868 -3.76469,0.644833 -0.929086,-0.03223 -1.892077,0.09371 -2.801561,-0.101814 z"
     style="fill:#ff6500;stroke-width:0.00500472"
     sodipodi:nodetypes="sccccccccccccss" />
</svg>
